<svg width="15" height="15" viewBox="0 0 15 15" fill="none" xmlns="http://www.w3.org/2000/svg">
<path d="M13.501 6.00098H9.00098V1.50098C9.00098 1.23576 8.89562 0.981405 8.70808 0.793869C8.52055 0.606333 8.26619 0.500977 8.00098 0.500977H7.00098C6.73576 0.500977 6.48141 0.606333 6.29387 0.793869C6.10633 0.981405 6.00098 1.23576 6.00098 1.50098V6.00098H1.50098C1.23576 6.00098 0.981406 6.10633 0.79387 6.29387C0.606333 6.48141 0.500977 6.73576 0.500977 7.00098L0.500977 8.00098C0.500977 8.26619 0.606333 8.52055 0.79387 8.70808C0.981406 8.89562 1.23576 9.00098 1.50098 9.00098H6.00098V13.501C6.00098 13.7662 6.10633 14.0205 6.29387 14.2081C6.48141 14.3956 6.73576 14.501 7.00098 14.501H8.00098C8.26619 14.501 8.52055 14.3956 8.70808 14.2081C8.89562 14.0205 9.00098 13.7662 9.00098 13.501V9.00098H13.501C13.7662 9.00098 14.0205 8.89562 14.2081 8.70808C14.3956 8.52055 14.501 8.26619 14.501 8.00098V7.00098C14.501 6.73576 14.3956 6.48141 14.2081 6.29387C14.0205 6.10633 13.7662 6.00098 13.501 6.00098Z" fill="#33AFAA"/>
</svg>
